<svg width="1341" height="261" viewBox="0 0 1341 261" fill="none" xmlns="http://www.w3.org/2000/svg">
<path fill-rule="evenodd" clip-rule="evenodd" d="M85.1734 0.193929C72.5859 1.55552 60.0383 5.35848 49.7329 10.935C25.3376 24.1367 8.47013 46.7844 2.38815 74.504C0.384052 83.6393 0.575488 100.52 2.79554 110.299C6.21637 125.371 14.0092 144.75 24.3298 163.847C30.7457 175.72 41.1414 192.693 41.9968 192.693C43.6364 192.693 52.8842 175.728 57.2248 164.757C59.6952 158.514 63.3427 145.867 63.3458 143.533C63.3473 142.816 60.85 140.356 57.7554 138.027C48.6692 131.189 41.506 121.13 37.6969 109.859C35.9439 104.673 35.4776 101.755 35.208 94.2877C34.773 82.2233 36.0695 76.0418 41.2211 65.6185C44.6021 58.7784 46.123 56.6808 51.7707 51.0683C64.8513 38.0704 78.2115 32.8821 96.6604 33.6341C112.925 34.298 124.437 39.2964 135.746 50.6065C141.513 56.3745 143.272 58.7424 146.293 64.8044C151.636 75.5272 153.235 82.8199 152.751 94.264C152.303 104.85 150.377 111.963 145.685 120.352C140.21 130.142 126.987 141.952 117.4 145.613C114.094 146.876 113.968 147.053 111.509 153.908C103.763 175.499 86.0204 202.056 68.093 218.889L62.6229 224.026L74.7087 239.182C92.5779 261.591 93.1967 262.117 97.3151 258.36C100.304 255.634 113.293 239.44 123.88 225.239C157.173 180.583 178.948 139.115 185.603 107.689C187.464 98.907 187.466 83.5481 185.609 74.7958C177.732 37.6775 149.465 9.27095 112.902 1.72859C106.847 0.479571 90.7622 -0.410286 85.1734 0.193929ZM92.2815 53.1076C89.1303 56.664 58.7533 102.766 58.7533 103.993C58.7533 105.7 60.3408 105.747 67.1771 104.243C69.9148 103.641 73.1028 103.136 74.2607 103.121L76.3667 103.094V114.027C76.3667 125.97 75.5825 133.85 73.2261 145.596C66.2995 180.115 43.327 215.463 12.221 239.464C-1.99682 250.434 -0.895602 249.479 1.31832 248.926C2.3713 248.662 6.85123 246.912 11.2737 245.037C33.4873 235.616 57.7807 217.584 73.3939 198.927C94.4786 173.73 107.128 145.127 111.199 113.437C111.903 107.964 112.606 103.359 112.762 103.202C112.919 103.045 116.292 103.529 120.258 104.276C124.225 105.023 128.057 105.409 128.773 105.134C129.97 104.675 129.942 104.4 128.442 101.759C125.35 96.3171 95.128 52.2698 94.3071 52.0095C93.8552 51.8663 92.944 52.3602 92.2815 53.1076Z" fill="#1B29CB"/>
<path d="M261.621 216.015V68.2885H292.863V190.153H352.864V216.015H261.621ZM508.639 141.945C508.639 153.393 507.19 163.807 504.294 173.187C501.535 182.428 497.259 190.429 491.466 197.187C485.811 203.946 478.5 209.118 469.534 212.705C460.707 216.291 450.293 218.084 438.293 218.084C426.292 218.084 415.809 216.291 406.844 212.705C398.016 208.981 390.706 203.808 384.912 197.187C379.257 190.429 374.981 182.359 372.085 172.98C369.326 163.6 367.947 153.187 367.947 141.738C367.947 126.427 370.429 113.117 375.395 101.806C380.499 90.4958 388.223 81.737 398.568 75.53C409.051 69.1851 422.361 66.0126 438.499 66.0126C454.5 66.0126 467.672 69.1851 478.017 75.53C488.362 81.737 496.018 90.5648 500.983 102.013C506.087 113.324 508.639 126.634 508.639 141.945ZM400.844 141.945C400.844 152.29 402.154 161.187 404.775 168.635C407.396 176.083 411.465 181.808 416.982 185.808C422.499 189.808 429.603 191.808 438.293 191.808C447.258 191.808 454.431 189.808 459.81 185.808C465.328 181.808 469.328 176.083 471.81 168.635C474.431 161.187 475.741 152.29 475.741 141.945C475.741 126.358 472.845 114.151 467.052 105.324C461.258 96.4959 451.741 92.082 438.499 92.082C429.672 92.082 422.499 94.0821 416.982 98.0821C411.465 102.082 407.396 107.806 404.775 115.255C402.154 122.703 400.844 131.6 400.844 141.945ZM585.171 68.2885C598.274 68.2885 609.24 69.5299 618.068 72.0127C627.033 74.3576 633.723 78.2887 638.137 83.806C642.689 89.1854 644.965 96.4959 644.965 105.737C644.965 111.255 644.068 116.289 642.275 120.841C640.482 125.393 637.861 129.117 634.413 132.014C631.102 134.91 627.033 136.772 622.206 137.6V138.635C627.171 139.6 631.654 141.324 635.654 143.807C639.654 146.29 642.827 149.876 645.172 154.566C647.516 159.256 648.689 165.463 648.689 173.187C648.689 182.153 646.482 189.877 642.068 196.36C637.792 202.705 631.585 207.601 623.447 211.05C615.309 214.36 605.654 216.015 594.481 216.015H539.239V68.2885H585.171ZM588.688 126.841C597.791 126.841 604.067 125.393 607.516 122.496C611.102 119.6 612.895 115.393 612.895 109.875C612.895 104.22 610.826 100.151 606.688 97.6683C602.55 95.1855 595.998 93.9441 587.033 93.9441H570.481V126.841H588.688ZM570.481 151.669V190.153H590.964C600.343 190.153 606.895 188.36 610.619 184.773C614.343 181.049 616.206 176.152 616.206 170.083C616.206 166.359 615.378 163.118 613.723 160.359C612.206 157.6 609.516 155.462 605.654 153.945C601.792 152.428 596.55 151.669 589.929 151.669H570.481ZM768.665 216.015L757.906 180.842H704.112L693.353 216.015H659.629L711.768 67.6678H750.044L802.39 216.015H768.665ZM739.699 120.22C739.009 117.876 738.113 114.91 737.009 111.324C735.906 107.737 734.802 104.082 733.699 100.358C732.595 96.6338 731.699 93.3924 731.009 90.6337C730.32 93.3924 729.354 96.8407 728.113 100.979C727.009 104.979 725.906 108.841 724.802 112.565C723.837 116.151 723.078 118.703 722.526 120.22L711.974 154.566H750.458L739.699 120.22ZM876.342 216.015H809.099V198.222L827.1 189.946V94.3579L809.099 86.0819V68.2885H876.342V86.0819L858.342 94.3579V189.946L876.342 198.222V216.015ZM988.621 175.049C988.621 183.739 986.483 191.325 982.207 197.808C977.931 204.291 971.724 209.325 963.586 212.912C955.586 216.36 945.792 218.084 934.206 218.084C929.103 218.084 924.068 217.739 919.102 217.05C914.275 216.36 909.585 215.394 905.033 214.153C900.619 212.774 896.412 211.119 892.412 209.187V180.015C899.447 183.049 906.688 185.877 914.137 188.497C921.723 190.98 929.24 192.222 936.689 192.222C941.792 192.222 945.861 191.532 948.896 190.153C952.068 188.773 954.344 186.911 955.724 184.566C957.241 182.221 958 179.532 958 176.497C958 172.773 956.689 169.601 954.068 166.98C951.586 164.359 948.206 161.945 943.93 159.738C939.654 157.393 934.758 154.911 929.24 152.29C925.792 150.635 922.068 148.704 918.068 146.497C914.068 144.152 910.206 141.324 906.481 138.014C902.895 134.566 899.93 130.428 897.585 125.6C895.24 120.772 894.067 114.979 894.067 108.22C894.067 99.3925 896.067 91.8751 900.068 85.6681C904.206 79.3232 909.999 74.4955 917.447 71.1851C925.033 67.8747 933.93 66.2195 944.137 66.2195C951.862 66.2195 959.172 67.1161 966.069 68.9092C973.103 70.7024 980.414 73.2541 988 76.5645L977.862 100.979C971.103 98.2201 965.034 96.0821 959.655 94.5648C954.275 93.0476 948.758 92.2889 943.103 92.2889C939.241 92.2889 935.93 92.9096 933.172 94.151C930.413 95.3924 928.275 97.1166 926.758 99.3235C925.378 101.53 924.689 104.151 924.689 107.186C924.689 110.634 925.723 113.6 927.792 116.082C929.861 118.427 932.965 120.703 937.103 122.91C941.241 125.117 946.413 127.738 952.62 130.772C960.206 134.359 966.62 138.083 971.862 141.945C977.241 145.807 981.379 150.359 984.276 155.6C987.172 160.842 988.621 167.325 988.621 175.049ZM1100.51 216.015H1015.47V68.2885H1100.51V93.9441H1046.71V126.427H1096.78V152.083H1046.71V190.153H1100.51V216.015ZM1265.32 141.945C1265.32 153.393 1263.87 163.807 1260.97 173.187C1258.22 182.428 1253.94 190.429 1248.15 197.187C1242.49 203.946 1235.18 209.118 1226.21 212.705C1217.39 216.291 1206.97 218.084 1194.97 218.084C1182.97 218.084 1172.49 216.291 1163.52 212.705C1154.7 208.981 1147.39 203.808 1141.59 197.187C1135.94 190.429 1131.66 182.359 1128.76 172.98C1126.01 163.6 1124.63 153.187 1124.63 141.738C1124.63 126.427 1127.11 113.117 1132.08 101.806C1137.18 90.4958 1144.9 81.737 1155.25 75.53C1165.73 69.1851 1179.04 66.0126 1195.18 66.0126C1211.18 66.0126 1224.35 69.1851 1234.7 75.53C1245.04 81.737 1252.7 90.5648 1257.66 102.013C1262.77 113.324 1265.32 126.634 1265.32 141.945ZM1157.52 141.945C1157.52 152.29 1158.83 161.187 1161.45 168.635C1164.08 176.083 1168.14 181.808 1173.66 185.808C1179.18 189.808 1186.28 191.808 1194.97 191.808C1203.94 191.808 1211.11 189.808 1216.49 185.808C1222.01 181.808 1226.01 176.083 1228.49 168.635C1231.11 161.187 1232.42 152.29 1232.42 141.945C1232.42 126.358 1229.53 114.151 1223.73 105.324C1217.94 96.4959 1208.42 92.082 1195.18 92.082C1186.35 92.082 1179.18 94.0821 1173.66 98.0821C1168.14 102.082 1164.08 107.806 1161.45 115.255C1158.83 122.703 1157.52 131.6 1157.52 141.945Z" fill="#1B29CB"/>
</svg>
